<svg width="190" height="146" viewBox="0 0 190 146" fill="none" xmlns="http://www.w3.org/2000/svg">
<g id="upload_img" clip-path="url(#clip0_0_8)">
<g id="Rounded Rectangle 522">
<mask id="path-1-inside-1_0_8" fill="white">
<path fill-rule="evenodd" clip-rule="evenodd" d="M160 84.9999V107.696C160 112.282 154 116 146.598 116H43.4021C36.0004 116 30 112.282 30 107.696V84.9999"/>
</mask>
<path fill-rule="evenodd" clip-rule="evenodd" d="M160 84.9999V107.696C160 112.282 154 116 146.598 116H43.4021C36.0004 116 30 112.282 30 107.696V84.9999" fill="black" fill-opacity="0.01"/>
<path d="M157 84.9999V107.696H163V84.9999H157ZM157 107.696C157 108.569 156.419 109.825 154.495 111.018C152.615 112.182 149.831 113 146.598 113V119C150.766 119 154.683 117.959 157.655 116.118C160.581 114.305 163 111.41 163 107.696H157ZM146.598 113H43.4021V119H146.598V113ZM43.4021 113C40.1688 113 37.3846 112.182 35.5056 111.018C33.5807 109.825 33 108.569 33 107.696H27C27 111.41 29.4195 114.305 32.3453 116.118C35.3169 117.959 39.2337 119 43.4021 119V113ZM33 107.696V84.9999H27V107.696H33Z" fill="#35465D" mask="url(#path-1-inside-1_0_8)"/>
</g>
<g id="Shape 2">
<mask id="path-3-outside-2_0_8" maskUnits="userSpaceOnUse" x="54" y="25" width="81" height="73" fill="black">
<rect fill="white" x="54" y="25" width="81" height="73"/>
<path fill-rule="evenodd" clip-rule="evenodd" d="M85.796 96.9932V58.5803L62.9915 59.6086L95.4934 30.0067L127.009 58.608L104.444 58.4791V97.0004"/>
</mask>
<path fill-rule="evenodd" clip-rule="evenodd" d="M85.796 96.9932V58.5803L62.9915 59.6086L95.4934 30.0067L127.009 58.608L104.444 58.4791V97.0004" fill="black" fill-opacity="0.01"/>
<path d="M85.796 58.5803H88.796V55.4419L85.6608 55.5833L85.796 58.5803ZM62.9915 59.6086L60.9714 57.3906L54.8351 62.9794L63.1266 62.6055L62.9915 59.6086ZM95.4934 30.0067L97.5095 27.7851L95.4898 25.9522L93.4733 27.7887L95.4934 30.0067ZM127.009 58.608L126.992 61.6079L134.828 61.6527L129.025 56.3864L127.009 58.608ZM104.444 58.4791L104.461 55.4791L101.444 55.4619V58.4791H104.444ZM88.796 96.9932V58.5803H82.796V96.9932H88.796ZM85.6608 55.5833L62.8564 56.6116L63.1266 62.6055L85.9311 61.5772L85.6608 55.5833ZM65.0116 61.8266L97.5135 32.2246L93.4733 27.7887L60.9714 57.3906L65.0116 61.8266ZM93.4773 32.2282L124.993 60.8295L129.025 56.3864L97.5095 27.7851L93.4773 32.2282ZM127.026 55.608L104.461 55.4791L104.427 61.479L126.992 61.6079L127.026 55.608ZM101.444 58.4791V97.0004H107.444V58.4791H101.444Z" fill="#35465D" mask="url(#path-3-outside-2_0_8)"/>
</g>
</g>
<defs>
<clipPath id="clip0_0_8">
<rect width="190" height="146" fill="white"/>
</clipPath>
</defs>
</svg>
